<svg xmlns="http://www.w3.org/2000/svg" width="170" height="40.559" viewBox="0 0 170 40.559">
  <path id="logo_1_" d="M42.911,140.84H33.505l-2.891-6.947H14.909l-2.632,6.947H3l14.152-35.122h10.14ZM22.373,114.132l-5.135,13.635H28.025Zm54.8-8.414h7.637V140.84H76.048V118.878l-9.492,11H65.218l-9.492-11V140.84H46.967V105.718H54.6l11.261,13.03Zm29.815,0c12.815,0,19.416,7.982,19.416,17.6,0,10.1-6.386,17.518-20.409,17.518H91.452V105.718h15.533Zm-6.731,28.693h5.739c8.8,0,11.434-6,11.434-11.132,0-6.041-3.236-11.132-11.52-11.132H100.3l-.043,22.264Zm43.579-20.365L132.787,103H173v40.213l-11.046-11.046V114.046H143.832Zm0,2.2-11.391,11.391v15.921h15.921l11.391-11.391H143.832Z" transform="translate(-3 -103)"/>
</svg>
