<svg xmlns="http://www.w3.org/2000/svg" width="61" height="61" viewBox="0 0 61 61">
  <g id="Bitcoin_BTC" transform="translate(-5 -5)">
    <g id="Group_11" data-name="Group 11" transform="translate(5 5)">
      <g id="Group_10" data-name="Group 10">
        <g id="Group_9" data-name="Group 9">
          <g id="Group_4" data-name="Group 4">
            <g id="Group_3" data-name="Group 3">
              <g id="Group_2" data-name="Group 2">
                <g id="Group_1" data-name="Group 1">
                  <path id="Path_149" data-name="Path 149" d="M35.5,66A30.5,30.5,0,1,1,66,35.5,30.534,30.534,0,0,1,35.5,66Zm0-59.87A29.37,29.37,0,1,0,64.87,35.5,29.4,29.4,0,0,0,35.5,6.13Z" transform="translate(-5 -5)" fill="#353535"/>
                </g>
              </g>
            </g>
          </g>
          <g id="Group_8" data-name="Group 8" transform="translate(4 4)">
            <g id="Group_7" data-name="Group 7">
              <g id="Group_6" data-name="Group 6">
                <g id="Group_5" data-name="Group 5">
                  <path id="Path_150" data-name="Path 150" d="M35.5,62A26.5,26.5,0,1,1,62,35.5,26.529,26.529,0,0,1,35.5,62Zm0-51.848A25.348,25.348,0,1,0,60.848,35.5,25.376,25.376,0,0,0,35.5,10.152Z" transform="translate(-9 -9)" fill="#353535"/>
                </g>
              </g>
            </g>
          </g>
        </g>
      </g>
    </g>
    <g id="Group_15" data-name="Group 15" transform="translate(21.187 17.23)">
      <g id="Group_14" data-name="Group 14">
        <g id="Group_13" data-name="Group 13">
          <g id="Group_12" data-name="Group 12">
            <path id="Path_151" data-name="Path 151" d="M31.913,49.225l-3.927-.979,1.209-4.836q-.684-.173-1.388-.359L26.6,47.9l-3.922-.979L23.9,42.007l-5.47-1.38-.571-.144,1.873-4.319.416.11c.645.172,1.349.354,1.752.453l0-.011.381.093a.988.988,0,0,0,.229.03c.091,0,.367,0,.542-.437l3.3-13.234c.024-.55-.293-.933-1.013-1.111l-.331-.1c-.388-.1-1.13-.276-1.806-.431l-.5-.113,1.03-4.139.485.121s4,1,5.474,1.361l1.213-4.859,3.923.98-1.184,4.748c.466.106.933.215,1.394.326l1.179-4.729,3.928.979-1.22,4.9c2.931,1.066,6.454,2.978,5.825,7.191a5.244,5.244,0,0,1-3.069,4.4c2.447,1.669,3.1,4.034,1.986,7.2-1.132,3.24-3.367,4.749-7.033,4.749a20.416,20.416,0,0,1-3.492-.348ZM29.2,47.517l1.986.495L32.4,43.138l.464.088a20.58,20.58,0,0,0,3.771.415c3.225,0,5.1-1.258,6.089-4.079,1.081-3.084.317-5.106-2.474-6.56l-1.2-.625,1.32-.306a4.224,4.224,0,0,0,3.393-3.928c.425-2.845-1.3-4.772-5.593-6.251l-.434-.149,1.2-4.814-1.986-.494-1.179,4.728-.485-.121c-.773-.192-1.568-.375-2.357-.555l-.5-.112,1.19-4.769-1.983-.5-1.209,4.845-.478-.109c-.524-.12-4.156-1.026-5.484-1.358l-.542,2.178c.909.209,1.4.326,1.666.425a2.076,2.076,0,0,1,1.749,2.23L24.008,36.713A1.572,1.572,0,0,1,22.1,37.8c-.117-.015-.454-.088-1.8-.441L19.245,39.8c1.382.348,4.835,1.218,5.384,1.358l.482.123-1.222,4.909,1.981.495,1.215-4.87.493.135c.8.219,1.583.418,2.346.609l.485.122Zm4.667-7.159a20.76,20.76,0,0,1-5.022-.853L27.8,39.238l1.865-7.477.485.121c.2.05.44.1.715.166,2.063.462,5.515,1.236,6.772,3.273a3.131,3.131,0,0,1,.353,2.485C37.7,38.972,36.748,40.358,33.866,40.358Zm-4.857-1.842.09.023a19.973,19.973,0,0,0,4.767.819c1.82,0,2.852-.586,3.152-1.792a2.135,2.135,0,0,0-.233-1.718c-1.036-1.679-4.356-2.424-6.14-2.823l-.251-.057Zm6.181-7.825A16.347,16.347,0,0,1,31.132,30l-.969-.246,1.714-6.874.485.121c.167.042.37.087.6.138,1.69.375,4.52,1,5.613,2.768a2.986,2.986,0,0,1,.325,2.376C38.627,29.383,37.761,30.691,35.19,30.691Zm-3.816-1.658.015,0a15.573,15.573,0,0,0,3.8.653c2.088,0,2.564-.94,2.741-1.647a2,2,0,0,0-.205-1.607c-.871-1.406-3.543-2-4.979-2.317l-.14-.031Z" transform="translate(-17.858 -13.895)" fill="#353535"/>
          </g>
        </g>
      </g>
    </g>
  </g>
</svg>
