<svg xmlns="http://www.w3.org/2000/svg" width="43.42" height="59.87" viewBox="0 0 43.42 59.87">
  <g id="Speculate" transform="translate(-10.041 -0.97)">
    <path id="Path_152" data-name="Path 152" d="M33.91,23.051H28.4a1.625,1.625,0,0,0,0,3.25h2.542v1.781a1.625,1.625,0,0,0,3.25,0v-1.81A4.44,4.44,0,0,0,33.91,17.4H31.439a1.412,1.412,0,1,1,0-2.825h5.554a1.625,1.625,0,1,0,0-3.25h-2.8V9.544a1.625,1.625,0,1,0-3.25,0v1.831a4.65,4.65,0,0,0,.5,9.275H33.91a1.2,1.2,0,1,1,0,2.4Z" transform="translate(-0.514)" fill="#353535"/>
    <path id="Path_153" data-name="Path 153" d="M54.012,15.826a1.627,1.627,0,0,0-2.3-.055l-1.643,1.565A17.685,17.685,0,0,0,17.82,8.7,1.625,1.625,0,1,0,20.5,10.533,14.441,14.441,0,0,1,46.825,17.4l-1.56-1.38a1.625,1.625,0,1,0-2.154,2.435l4.325,3.827a1.626,1.626,0,0,0,2.2-.041l4.322-4.12a1.625,1.625,0,0,0,.056-2.3Z" transform="translate(-1)" fill="#353535"/>
    <path id="Path_154" data-name="Path 154" d="M46.511,26.2a1.557,1.557,0,0,0-2.176.529,13.89,13.89,0,0,1-15.2,6.481A14.325,14.325,0,0,1,18.376,20.417l1.518,1.38a1.552,1.552,0,0,0,2.232-.14,1.657,1.657,0,0,0-.136-2.294l-4.209-3.827a1.552,1.552,0,0,0-2.207.112l-3.719,4.12a1.657,1.657,0,0,0,.084,2.3,1.551,1.551,0,0,0,2.235-.086l1.06-1.176A17.545,17.545,0,0,0,28.456,36.384a17.018,17.018,0,0,0,18.57-7.949,1.651,1.651,0,0,0-.515-2.236Z" transform="translate(0 -0.494)" fill="#353535"/>
    <path id="Path_155" data-name="Path 155" d="M16.816,40.412H10.971a.93.93,0,0,0-.93.93V61.289a.93.93,0,0,0,.93.93h5.845a2.027,2.027,0,0,0,2.027-2.027V42.439a2.027,2.027,0,0,0-2.027-2.027Z" transform="translate(0 -1.378)" fill="#353535"/>
    <path id="Path_156" data-name="Path 156" d="M53.753,42.7a3.5,3.5,0,0,0-2.93-1.579h-2.29a5.055,5.055,0,0,0-4.687,3.136,5.005,5.005,0,0,1-1.379,1.891,7.418,7.418,0,0,1-5.644,2.893H30.035a1.35,1.35,0,0,1,0-2.7h6.752a4.477,4.477,0,0,0,2.74-1.036,4.715,4.715,0,0,0-4.7-4.184H29.845a7.007,7.007,0,0,0-4.975,2.055l-.127.127a6.354,6.354,0,0,1-3.2,1.729v13.54h17.97a13.86,13.86,0,0,0,12.746-8.4l1.788-4.162a3.5,3.5,0,0,0-.293-3.314Z" transform="translate(-1 -1.378)" fill="#353535"/>
  </g>
</svg>
