<svg xmlns="http://www.w3.org/2000/svg" width="170" height="67.37" viewBox="0 0 170 67.37">
  <path id="logo" d="M190.2,118.021c.095,2.553-1.8,3.593-2.978,3.4A3.755,3.755,0,0,1,185,119.534a2.151,2.151,0,0,0-2.411-1.135c-.9.331-6,3.64-6.287,8.32-.189,3.451,0,14.277,0,14.277a2.634,2.634,0,0,0,1.371,2.695c.709.425,3.4.473,4.16.567s.756.284.756.52,0,.331-.662.331H163.96c-.567,0-.8-.095-.8-.473,0-.473.756-.378,1.324-.473s3.593.189,4.491-1.371a4.994,4.994,0,0,0,.567-2.6l-.095-19c0-1.513-.473-1.749-.9-1.985s-1.135-.378-2.6.142c-1.418.473-2.364.9-2.647.331-.047-.331-.047-.615,1.56-1.087a49.488,49.488,0,0,0,7.8-3.073c2.364-1.324,2.742-1.513,3.262-1.135.567.378.378,1.229.378,1.891v6.335c.851-1.418,3.687-6.1,5.909-7.469,1.749-1.087,2.364-1.182,3.451-1.182C186.935,113.955,190.055,114.759,190.2,118.021Zm-71.809,26.237c-2.033,0-3.593-.331-4.207-.9s-.8-1.135-.8-2.506V116.272c0-.8.047-1.749-.52-1.938s-.993-.047-3.593,1.418a32.636,32.636,0,0,1-7.327,2.836c-1.324.331-1.8.662-1.56,1.135.331.615,2.127-.284,3.687-.615a1.8,1.8,0,0,1,2.458,1.8v19.477a6.03,6.03,0,0,1-.425,2.364c-.756,1.655-3.971,1.418-4.68,1.418-.851,0-1.087.189-1.087.473,0,.236.142.473.662.473h17.822c.378,0,.662,0,.662-.378C119.617,144.4,119.333,144.258,118.388,144.258Zm-8.84-41.506a4.4,4.4,0,1,0-4.4-4.4A4.419,4.419,0,0,0,109.548,102.751Zm48.077,22.833c2.458,11.866-5.72,18.2-12.811,19.76-6.949,1.513-18.72.425-20.848-12.338a16.6,16.6,0,0,1,12.811-19.524C144.388,112.017,155.167,113.719,157.625,125.585Zm-7,2.458c-.709-9.171-5.247-13.757-11.346-13.189-6.287.567-9.171,7.753-8.273,15.742s5.626,14.182,11.535,13.142C148.359,142.7,151.338,137.072,150.628,128.043Zm-54.79-15.317c0,15.459-10.258,32.524-31.626,32.524H21.287c-.52,0-1.087-.095-1.087-.615,0-.615.756-.709,1.513-.709,8.32-.236,9.88-.52,10.873-1.513.52-.567,1.276-.993,1.276-4.869V84.362c0-4.775-5.815-4.018-9.88-4.444-1.418-.142-1.56-.331-1.56-.756s.284-.615,1.04-.662H56.979C93.947,78.5,95.838,105.541,95.838,112.726Zm-11.582-1.04A37.727,37.727,0,0,0,77.5,90.744c-5.767-7.895-15.411-9.928-23.826-9.928H46.815c-1.607,0-1.7.709-1.7,1.844V141.8c0,1.276.473,1.465,1.749,1.465h4.4c16.4,0,20.8-1.513,26.568-9.171C83.594,126.388,84.256,115.421,84.256,111.686Z" transform="translate(-20.2 -78.5)"/>
</svg>
