<svg xmlns="http://www.w3.org/2000/svg" width="170" height="57.722" viewBox="0 0 170 57.722">
  <path id="logosvg.com_1_" d="M4,83.6H42.12V97.3H20.87v9.541h18.3v12.143H20.87v21.684H4Zm58.459,0H44.852v57.071H84.23V126.49H62.416V83.6Zm40.245,0h1.388v57.071H86.918V83.6Zm-.26,9.324a6.9,6.9,0,1,0-6.9,6.9A6.885,6.885,0,0,0,102.444,92.924Zm55.6-9.324H142.255l-8.977,13.878L124.821,83.6H104.179l18.865,28.1-18.518,28.969h16.133L131.2,123.715l11.362,16.87h19.429L142.515,109.49ZM174,135.858a5.381,5.381,0,0,1-5.551,5.464,5.464,5.464,0,1,1,0-10.929A5.381,5.381,0,0,1,174,135.858Zm-1.258,0a4.316,4.316,0,1,0-4.293,4.38A4.181,4.181,0,0,0,172.742,135.858Zm-3.036.39,1.6,2.3-1.084.737-1.778-2.689h-.781v2.645h-1.3v-6.722h2.082a2.14,2.14,0,0,1,2.255,2.038A1.821,1.821,0,0,1,169.707,136.248Zm-.3-1.691c0-.564-.39-.911-1.084-.911h-.607v1.821h.607C168.969,135.467,169.4,135.12,169.4,134.557Z" transform="translate(-4 -83.6)"/>
</svg>
