<svg xmlns="http://www.w3.org/2000/svg" width="27" height="17.579" viewBox="0 0 27 17.579">
  <path id="_3586360_email_envelope_mail_send_icon" data-name="3586360_email_envelope_mail_send_icon" d="M33.939,38.392a.465.465,0,0,0,.025-.144V21.608a.462.462,0,0,0-.025-.145c0-.006,0-.013-.006-.019a.467.467,0,0,0-.086-.144s0-.006-.005-.009l-.005,0a.471.471,0,0,0-.138-.1l-.011-.006a.463.463,0,0,0-.16-.039l-.017,0-.015,0H7.434l-.016,0-.015,0a.469.469,0,0,0-.162.039l-.009,0a.464.464,0,0,0-.14.1l-.005,0s0,.006-.005.009A.47.47,0,0,0,7,21.445c0,.006,0,.013-.006.019a.462.462,0,0,0-.025.145v16.64a.465.465,0,0,0,.026.147L7,38.414a.47.47,0,0,0,.088.145s0,.006.005.008l.007.006a.475.475,0,0,0,.05.044c.008.006.015.013.023.019a.435.435,0,0,0,.066.037l.016.009a.47.47,0,0,0,.184.038h26.06a.465.465,0,0,0,.184-.038l.025-.014a.48.48,0,0,0,.057-.032c.009-.007.018-.015.027-.022a.431.431,0,0,0,.045-.04l.008-.007s0-.007.006-.009a.469.469,0,0,0,.086-.143A.17.17,0,0,0,33.939,38.392ZM7.9,22.674,15.811,29.9,7.9,37.177Zm16.207,6.869a.447.447,0,0,0-.094.069c-.01.011-.014.026-.023.038l-3.53,3.224L8.645,22.078H32.283Zm-7.6.99,3.639,3.324a.469.469,0,0,0,.634,0l3.594-3.283,7.906,7.2H8.638Zm8.564-.6,7.953-7.264V37.185Z" transform="translate(-6.964 -21.139)" fill="#f5f5f5"/>
</svg>
