<svg xmlns="http://www.w3.org/2000/svg" width="170" height="36.691" viewBox="0 0 170 36.691">
  <path id="Oculus_logo" d="M849.715,668.341a8.133,8.133,0,0,0-5.778,2.336,8.239,8.239,0,0,0-2.336,5.778,8.324,8.324,0,0,0,2.274,5.84,7.941,7.941,0,0,0,5.778,2.4,8.133,8.133,0,0,0,5.778-2.336,8.239,8.239,0,0,0,2.336-5.778,8.324,8.324,0,0,0-2.274-5.84A8.413,8.413,0,0,0,849.715,668.341Zm4.242,9.1a3.526,3.526,0,0,1-.246.861c-.123.246-.246.553-.369.8a2.73,2.73,0,0,1-.492.676c-.184.184-.43.369-.615.553a4.13,4.13,0,0,1-.738.369,3.524,3.524,0,0,1-.861.246,4.652,4.652,0,0,1-.922.061,2.39,2.39,0,0,1-.922-.123,3.525,3.525,0,0,1-.861-.246l-.738-.369a2.643,2.643,0,0,1-.615-.553,2.733,2.733,0,0,1-.492-.676,3.176,3.176,0,0,1-.369-.8,6.28,6.28,0,0,1-.246-.861,4.648,4.648,0,0,1-.062-.922,2.39,2.39,0,0,1,.123-.922,3.522,3.522,0,0,1,.246-.861c.123-.246.246-.553.369-.8a2.728,2.728,0,0,1,.492-.676c.184-.185.43-.369.615-.553a4.137,4.137,0,0,1,.738-.369,3.524,3.524,0,0,1,.861-.246,4.653,4.653,0,0,1,.922-.061,2.389,2.389,0,0,1,.922.123,3.524,3.524,0,0,1,.861.246l.738.369a2.643,2.643,0,0,1,.615.553,2.73,2.73,0,0,1,.492.676,3.176,3.176,0,0,1,.369.8,6.309,6.309,0,0,1,.246.861,4.653,4.653,0,0,1,.061.922A4.752,4.752,0,0,1,853.957,677.439ZM819.41,662.071a19.073,19.073,0,0,0-7.254-3.565,23.723,23.723,0,0,0-4.61-.615c-1.168-.062-2.336,0-3.442,0H784.249a23.723,23.723,0,0,0-4.61.615,18.179,18.179,0,0,0-7.254,31.842,19.073,19.073,0,0,0,7.254,3.565,23.723,23.723,0,0,0,4.61.615c1.168.061,2.336,0,3.442,0h19.855a23.723,23.723,0,0,0,4.61-.615,18.179,18.179,0,0,0,7.254-31.842Zm-8.053,19.117a6.13,6.13,0,0,1-2.643,1.045,22.242,22.242,0,0,1-2.889.123H785.909a22.72,22.72,0,0,1-2.889-.123,5.843,5.843,0,0,1-2.643-1.045,5.974,5.974,0,0,1,0-9.835,6.13,6.13,0,0,1,2.643-1.045,22.243,22.243,0,0,1,2.889-.123h19.917a22.72,22.72,0,0,1,2.889.123,5.844,5.844,0,0,1,2.643,1.045,6.005,6.005,0,0,1,2.582,4.918A5.705,5.705,0,0,1,811.358,681.188Zm104.131-5.164v1.291a4.823,4.823,0,0,1-.123.861,4,4,0,0,1-.553,1.414,3.929,3.929,0,0,1-3.135,1.66,3.4,3.4,0,0,1-3.074-1.6,6.075,6.075,0,0,1-.553-1.475,12,12,0,0,1-.184-2.09V668.71h-3.688v8.176a9.961,9.961,0,0,0,.061,1.352,10.691,10.691,0,0,0,.738,3.074,6.286,6.286,0,0,0,4.979,3.381,8.919,8.919,0,0,0,3.135-.246,6.231,6.231,0,0,0,2.7-1.537,12.942,12.942,0,0,0,.123,1.537h3.258V668.833h-3.688v7.192Zm19.917,2.151a5.015,5.015,0,0,0-3.258-2.951,17.5,17.5,0,0,0-2.4-.676,5.211,5.211,0,0,1-1.045-.246,5.414,5.414,0,0,1-.922-.307,2.039,2.039,0,0,1-.86-.615.968.968,0,0,1-.246-.8,1.523,1.523,0,0,1,.492-.861,5.406,5.406,0,0,1,.615-.369,6.292,6.292,0,0,1,.861-.246,5.689,5.689,0,0,1,1.783.123,7.558,7.558,0,0,1,2.52,1.045c.615-.861,1.229-1.66,1.844-2.52a9.315,9.315,0,0,0-4.18-1.721,8.659,8.659,0,0,0-2.52,0,9.631,9.631,0,0,0-1.906.492,5.778,5.778,0,0,0-2.09,1.537,3.6,3.6,0,0,0-.861,1.66,3.789,3.789,0,0,0,0,2.336,3.937,3.937,0,0,0,1.168,1.783,9.51,9.51,0,0,0,4.18,1.66,12.938,12.938,0,0,1,1.475.369,4.745,4.745,0,0,1,1.168.492,2.548,2.548,0,0,1,.738.676,1.2,1.2,0,0,1,.184.8,1.277,1.277,0,0,1-.307.738,1.679,1.679,0,0,1-.738.553,3.637,3.637,0,0,1-1.168.307,7.5,7.5,0,0,1-1.66,0,9.4,9.4,0,0,1-1.783-.43,9.249,9.249,0,0,1-2.4-1.352c-.676.861-1.291,1.783-1.967,2.643a11.97,11.97,0,0,0,4,2.151,8.623,8.623,0,0,0,2.52.369,11.244,11.244,0,0,0,2.029-.123,6.9,6.9,0,0,0,2.459-.861,4.738,4.738,0,0,0,1.414-1.291,4.377,4.377,0,0,0,.922-2.274,3.045,3.045,0,0,0-.061-2.09Zm-65.651,2.7a4.842,4.842,0,0,1-2.643-.123,4.506,4.506,0,0,1-2.151-1.537,5.153,5.153,0,0,1-.861-2.52,4.8,4.8,0,0,1,.553-2.582,3.6,3.6,0,0,1,1.906-1.783,7.435,7.435,0,0,1,1.106-.307,3.968,3.968,0,0,1,1.475,0,6.25,6.25,0,0,1,2.52.922c.738-.922,1.475-1.906,2.274-2.828a8.286,8.286,0,0,0-4.364-1.783,8.741,8.741,0,0,0-4.672.738,7.671,7.671,0,0,0-3.442,3.258,9.328,9.328,0,0,0-.984,4.61,8.312,8.312,0,0,0,1.475,4.487,7.636,7.636,0,0,0,3.811,2.828,8.873,8.873,0,0,0,4.733.246,8.76,8.76,0,0,0,4.18-2.274c-.861-.861-1.66-1.783-2.52-2.643a5.117,5.117,0,0,1-2.4,1.291Zm26.494-20.531h3.934v23.912h-3.934Zm-7.991,15.675v1.291a4.818,4.818,0,0,1-.123.861,3.992,3.992,0,0,1-.553,1.414,3.929,3.929,0,0,1-3.135,1.66,3.4,3.4,0,0,1-3.074-1.6,6.077,6.077,0,0,1-.553-1.475,12,12,0,0,1-.184-2.09V668.71h-3.688v8.176a9.961,9.961,0,0,0,.061,1.352,10.7,10.7,0,0,0,.738,3.074,6.286,6.286,0,0,0,4.979,3.381,8.919,8.919,0,0,0,3.135-.246,6.231,6.231,0,0,0,2.7-1.537,12.917,12.917,0,0,0,.123,1.537h3.135V668.833H888.2l.062,7.192Z" transform="translate(-765.623 -657.864)"/>
</svg>
