<svg xmlns="http://www.w3.org/2000/svg" width="24.106" height="24.148" viewBox="0 0 24.106 24.148">
  <path id="_2561306_phone_call_icon" data-name="2561306_phone_call_icon" d="M15.739,5.213a5.266,5.266,0,0,1,4.16,4.16M15.739,1a9.479,9.479,0,0,1,8.373,8.363m-1.053,8.4v3.16a2.106,2.106,0,0,1-2.3,2.106A20.843,20.843,0,0,1,11.673,19.8a20.538,20.538,0,0,1-6.319-6.319A20.843,20.843,0,0,1,2.12,4.349a2.106,2.106,0,0,1,2.1-2.3h3.16A2.106,2.106,0,0,1,9.483,3.865a13.523,13.523,0,0,0,.737,2.96,2.106,2.106,0,0,1-.474,2.222L8.408,10.384A16.852,16.852,0,0,0,14.728,16.7l1.338-1.338a2.106,2.106,0,0,1,2.222-.474,13.523,13.523,0,0,0,2.96.737,2.106,2.106,0,0,1,1.812,2.138Z" transform="translate(-1.111 0.104)" fill="none" stroke="#f7f7ff" stroke-linecap="round" stroke-linejoin="round" stroke-width="2"/>
</svg>
