<svg xmlns="http://www.w3.org/2000/svg" width="170" height="46.899" viewBox="0 0 170 46.899">
  <path id="black" d="M183.714,111.634h7.091l-1.516,7.091H182.2l-2.347,11c-.538,2.494,0,2.836,2.885,2.836,1.32,0,2.4-.049,3.815-.1l-1.418,6.651a65.318,65.318,0,0,1-8.265.489c-6.993,0-9.487-1.712-8.216-7.629l2.836-13.3h-5.624l1.467-7.042h5.624l1.858-8.705h10.71Zm-36.727,27.387H157.7l5.82-27.387h-10.71Zm6.5-30.516H164.2l1.369-6.455H154.86Zm-29.049,3.13-5.82,27.387h10.417l5.82-27.387Zm24.795-1.174c-.685-.049-1.369-.1-2.005-.1-4.793,0-12.422,4.695-14.427,13.106l-.538,1.907h.2c1.516-3.619,5.331-5.575,10.466-5.575a19.427,19.427,0,0,1,4.206.489Zm-39.955,1.174-5.82,27.387h10.71l5.82-27.387ZM122.045,102h-10.71l-1.369,6.455h10.71Zm-19.22,23.768c-1.663,7.923-8.9,14.329-18.975,14.329-4.744,0-8.069-1.565-9.439-3.57h-.1L71.673,148.9H60.963l7.923-37.314H79.3L78.52,115.2h.1a16.315,16.315,0,0,1,11.346-4.353C99.647,110.9,104.831,116.28,102.826,125.768Zm-17.019-7.385c-5.037,0-8.216,2.739-9.1,6.993-.929,4.255,1.125,6.944,6.162,6.944,4.89,0,8.118-2.445,9.047-6.944C92.849,120.828,90.7,118.383,85.807,118.383ZM52.747,122.2,43.7,121.171c-2.641-.293-3.228-1.076-3.032-1.907.391-1.858,2.347-2.592,5.477-2.592a8.721,8.721,0,0,1,3.717.636,2.063,2.063,0,0,1,1.418,2.3H63.311c1.076-7.776-7.874-9.1-15.16-9.1-10.27,0-17.117,2.347-18.682,9.781-.978,4.646,1.712,6.9,7.825,7.629l9.341,1.174c2.592.293,3.57.734,3.228,2.152-.44,1.956-3.032,2.445-5.428,2.445-2.347,0-3.717-.293-4.548-.831a2.369,2.369,0,0,1-1.027-2.347H26.339c-1.516,8.314,8.461,9.634,16.041,9.634,11.395,0,18.193-3.032,19.562-9.487C63.115,125.279,59.936,122.98,52.747,122.2Zm141.823-8.167.489.88h-.587l-.342-.734h-.391v.734h-.587v-2.25h.929a.983.983,0,0,1,.636.2c.2.1.245.293.245.587a.707.707,0,0,1-.1.342A.5.5,0,0,1,194.571,114.031Zm-.2-.587a.374.374,0,0,0-.1-.245.524.524,0,0,0-.293-.1h-.245v.685h.245a.413.413,0,0,0,.293-.1A.374.374,0,0,0,194.375,113.444Zm1.809.391a1.675,1.675,0,0,1-.2.88,2.919,2.919,0,0,1-.44.734,2.051,2.051,0,0,1-.685.44,2.429,2.429,0,0,1-1.663,0,2.051,2.051,0,0,1-.685-.44,1.841,1.841,0,0,1-.44-.734,2.573,2.573,0,0,1-.2-.88,1.985,1.985,0,0,1,.2-.929,1.842,1.842,0,0,1,.44-.734,2.051,2.051,0,0,1,.685-.44,2.429,2.429,0,0,1,1.663,0,2.051,2.051,0,0,1,.685.44,1.841,1.841,0,0,1,.44.734A1.984,1.984,0,0,1,196.185,113.835Zm-.538,0a1.962,1.962,0,0,0-.147-.734,2.312,2.312,0,0,0-.342-.587,1.028,1.028,0,0,0-.538-.342,1.506,1.506,0,0,0-.636-.147,1.726,1.726,0,0,0-.685.147,2.02,2.02,0,0,0-.538.342,1.691,1.691,0,0,0-.342.587,1.787,1.787,0,0,0-.147.734,1.962,1.962,0,0,0,.147.734,2.019,2.019,0,0,0,.342.538,1.457,1.457,0,0,0,.538.342,1.562,1.562,0,0,0,.685.147,1.354,1.354,0,0,0,.636-.147,1.47,1.47,0,0,0,.88-.88A1.962,1.962,0,0,0,195.647,113.835Z" transform="translate(-26.185 -102)"/>
</svg>
